<svg width="18" height="18" viewBox="0 0 18 18" fill="none" xmlns="http://www.w3.org/2000/svg">
<path d="M7.5 12.75H10.5V11.25H7.5V12.75ZM7.5 9.75H12.75V8.25H7.5V9.75ZM5.25 6.75H12.75V5.25H5.25V6.75ZM4.96875 16.5C3.98125 16.5 3.14063 16.1531 2.44688 15.4594C1.75313 14.7656 1.40625 13.925 1.40625 12.9375C1.40625 12.225 1.59063 11.5875 1.95938 11.025C2.32812 10.4625 2.8125 10.0375 3.4125 9.75H1.5V8.25H6V12.75H4.5V10.9312C4.0375 11.0312 3.65625 11.2688 3.35625 11.6438C3.05625 12.0188 2.90625 12.45 2.90625 12.9375C2.90625 13.5125 3.10937 14 3.51562 14.4C3.92188 14.8 4.40625 15 4.96875 15V16.5ZM7.5 15.75V14.25H14.25V3.75H3.75V6.75H2.25V3.75C2.25 3.3375 2.39687 2.98438 2.69062 2.69063C2.98437 2.39688 3.3375 2.25 3.75 2.25H14.25C14.6625 2.25 15.0156 2.39688 15.3094 2.69063C15.6031 2.98438 15.75 3.3375 15.75 3.75V14.25C15.75 14.6625 15.6031 15.0156 15.3094 15.3094C15.0156 15.6031 14.6625 15.75 14.25 15.75H7.5Z" fill="currentColor"/>
</svg>
