<svg width="94" height="94" viewBox="0 0 94 94" fill="none" xmlns="http://www.w3.org/2000/svg">
<mask id="mask0_61394_97281" style="mask-type:alpha" maskUnits="userSpaceOnUse" x="0" y="0" width="94" height="94">
<rect width="94" height="94" fill="#D9D9D9"/>
</mask>
<g mask="url(#mask0_61394_97281)">
<path d="M47 50.9167C50.7861 50.9167 54.0174 49.5785 56.6938 46.9021C59.3701 44.2257 60.7083 40.9944 60.7083 37.2083C60.7083 33.4222 59.3701 30.191 56.6938 27.5146C54.0174 24.8382 50.7861 23.5 47 23.5C43.2139 23.5 39.9826 24.8382 37.3063 27.5146C34.6299 30.191 33.2917 33.4222 33.2917 37.2083C33.2917 40.9944 34.6299 44.2257 37.3063 46.9021C39.9826 49.5785 43.2139 50.9167 47 50.9167ZM19.5833 82.25C17.4292 82.25 15.5851 81.483 14.051 79.949C12.517 78.4149 11.75 76.5708 11.75 74.4167V19.5833C11.75 17.4292 12.517 15.5851 14.051 14.051C15.5851 12.517 17.4292 11.75 19.5833 11.75H74.4167C76.5708 11.75 78.4149 12.517 79.949 14.051C81.483 15.5851 82.25 17.4292 82.25 19.5833V74.4167C82.25 76.5708 81.483 78.4149 79.949 79.949C78.4149 81.483 76.5708 82.25 74.4167 82.25H19.5833ZM19.5833 74.4167H74.4167V69.9125C70.8917 66.4528 66.7955 63.7274 62.1281 61.7365C57.4608 59.7455 52.4181 58.75 47 58.75C41.5819 58.75 36.5392 59.7455 31.8719 61.7365C27.2045 63.7274 23.1083 66.4528 19.5833 69.9125V74.4167Z" fill="white" fill-opacity="0.3"/>
</g>
</svg>
