<svg width="150" height="151" viewBox="0 0 150 151" fill="none" xmlns="http://www.w3.org/2000/svg">
<path d="M71.2373 20.3641C69.4666 20.515 67.3023 20.7781 65.9181 21.0108C45.9409 24.3689 29.493 38.3112 22.8826 57.4906C21.6246 61.1406 20.7191 65.1976 20.2083 69.4739C19.9306 71.7981 19.9306 78.866 20.2083 81.1902C21.7311 93.9372 26.9295 104.933 35.6491 113.851C44.6053 123.011 56.0057 128.547 69.141 130.116C71.4655 130.394 78.5345 130.394 80.859 130.116C93.9943 128.547 105.395 123.011 114.351 113.851C123.07 104.933 128.269 93.9372 129.792 81.1902C130.069 78.866 130.069 71.7981 129.792 69.4739C128.269 56.7269 123.07 45.7313 114.351 36.8134C105.412 27.6714 93.9682 22.107 80.9127 20.5549C79.538 20.3915 72.5364 20.2534 71.2373 20.3641ZM81.8803 82.2113H68.1197V47.8148H81.8803V82.2113ZM76.6663 89.3691C79.0066 89.9266 80.9937 91.9085 81.6141 94.3039C81.8297 95.1366 81.8297 96.8033 81.6141 97.636C80.9948 100.027 79.0577 101.964 76.6663 102.583C76.3031 102.677 75.5751 102.75 75 102.75C73.0546 102.75 71.5832 102.14 70.206 100.763C68.8288 99.3863 68.2189 97.9151 68.2189 95.9699C68.2189 94.1294 68.8182 92.6093 70.0565 91.3088C71.8006 89.4773 74.1842 88.7778 76.6663 89.3691Z" fill="#5368A6" fill-opacity="0.3"/>
<path d="M81.8803 82.2113H68.1197V47.8148H81.8803V82.2113Z" fill="#5368A6"/>
<path d="M81.875 95.9492C81.875 99.7462 78.797 102.824 75 102.824C71.203 102.824 68.125 99.7462 68.125 95.9492C68.125 92.1523 71.203 89.0742 75 89.0742C78.797 89.0742 81.875 92.1523 81.875 95.9492Z" fill="#5368A6"/>
</svg>
