<svg width="80" height="81" viewBox="0 0 80 81" fill="none" xmlns="http://www.w3.org/2000/svg">
<path d="M34.1 58.5241L62.4 30.2241L57.8 25.7241L34.1 49.4241L22.1 37.4241L17.6 41.9241L34.1 58.5241ZM40 80.3241C34.5333 80.3241 29.3667 79.2741 24.5 77.1741C19.6333 75.0741 15.3833 72.2074 11.75 68.5741C8.11667 64.9407 5.25 60.6907 3.15 55.8241C1.05 50.9574 0 45.7907 0 40.3241C0 34.7907 1.05 29.5907 3.15 24.7241C5.25 19.8574 8.11667 15.6241 11.75 12.0241C15.3833 8.42407 19.6333 5.57407 24.5 3.47407C29.3667 1.37407 34.5333 0.324066 40 0.324066C45.5333 0.324066 50.7333 1.37407 55.6 3.47407C60.4667 5.57407 64.7 8.42407 68.3 12.0241C71.9 15.6241 74.75 19.8574 76.85 24.7241C78.95 29.5907 80 34.7907 80 40.3241C80 45.7907 78.95 50.9574 76.85 55.8241C74.75 60.6907 71.9 64.9407 68.3 68.5741C64.7 72.2074 60.4667 75.0741 55.6 77.1741C50.7333 79.2741 45.5333 80.3241 40 80.3241Z" fill="#00C437"/>
</svg>
