<svg width="18" height="18" viewBox="0 0 18 18" fill="none" xmlns="http://www.w3.org/2000/svg">
<path d="M9.0013 4.83332C9.23741 4.83332 9.43533 4.75346 9.59505 4.59374C9.75478 4.43402 9.83464 4.2361 9.83464 3.99999C9.83464 3.76388 9.75478 3.56596 9.59505 3.40624C9.43533 3.24652 9.23741 3.16666 9.0013 3.16666C8.76519 3.16666 8.56727 3.24652 8.40755 3.40624C8.24783 3.56596 8.16797 3.76388 8.16797 3.99999C8.16797 4.2361 8.24783 4.43402 8.40755 4.59374C8.56727 4.75346 8.76519 4.83332 9.0013 4.83332ZM8.16797 11.5H9.83464V6.49999H8.16797V11.5ZM0.667969 17.3333V2.33332C0.667969 1.87499 0.831163 1.48263 1.15755 1.15624C1.48394 0.829851 1.8763 0.666656 2.33464 0.666656H15.668C16.1263 0.666656 16.5187 0.829851 16.8451 1.15624C17.1714 1.48263 17.3346 1.87499 17.3346 2.33332V12.3333C17.3346 12.7917 17.1714 13.184 16.8451 13.5104C16.5187 13.8368 16.1263 14 15.668 14H4.0013L0.667969 17.3333ZM3.29297 12.3333H15.668V2.33332H2.33464V13.2708L3.29297 12.3333Z" fill="currentColor"/>
</svg>
