<svg width="20" height="20" viewBox="0 0 20 20" fill="none" xmlns="http://www.w3.org/2000/svg">
<path d="M7.50065 16.6666C7.04232 16.6666 6.64996 16.5035 6.32357 16.1771C5.99718 15.8507 5.83398 15.4583 5.83398 15C5.83398 14.5416 5.99718 14.1493 6.32357 13.8229C6.64996 13.4965 7.04232 13.3333 7.50065 13.3333C7.95898 13.3333 8.35135 13.4965 8.67773 13.8229C9.00412 14.1493 9.16732 14.5416 9.16732 15C9.16732 15.4583 9.00412 15.8507 8.67773 16.1771C8.35135 16.5035 7.95898 16.6666 7.50065 16.6666ZM12.5007 16.6666C12.0423 16.6666 11.65 16.5035 11.3236 16.1771C10.9972 15.8507 10.834 15.4583 10.834 15C10.834 14.5416 10.9972 14.1493 11.3236 13.8229C11.65 13.4965 12.0423 13.3333 12.5007 13.3333C12.959 13.3333 13.3513 13.4965 13.6777 13.8229C14.0041 14.1493 14.1673 14.5416 14.1673 15C14.1673 15.4583 14.0041 15.8507 13.6777 16.1771C13.3513 16.5035 12.959 16.6666 12.5007 16.6666ZM7.50065 11.6666C7.04232 11.6666 6.64996 11.5035 6.32357 11.1771C5.99718 10.8507 5.83398 10.4583 5.83398 9.99998C5.83398 9.54165 5.99718 9.14929 6.32357 8.8229C6.64996 8.49651 7.04232 8.33331 7.50065 8.33331C7.95898 8.33331 8.35135 8.49651 8.67773 8.8229C9.00412 9.14929 9.16732 9.54165 9.16732 9.99998C9.16732 10.4583 9.00412 10.8507 8.67773 11.1771C8.35135 11.5035 7.95898 11.6666 7.50065 11.6666ZM12.5007 11.6666C12.0423 11.6666 11.65 11.5035 11.3236 11.1771C10.9972 10.8507 10.834 10.4583 10.834 9.99998C10.834 9.54165 10.9972 9.14929 11.3236 8.8229C11.65 8.49651 12.0423 8.33331 12.5007 8.33331C12.959 8.33331 13.3513 8.49651 13.6777 8.8229C14.0041 9.14929 14.1673 9.54165 14.1673 9.99998C14.1673 10.4583 14.0041 10.8507 13.6777 11.1771C13.3513 11.5035 12.959 11.6666 12.5007 11.6666ZM7.50065 6.66665C7.04232 6.66665 6.64996 6.50345 6.32357 6.17706C5.99718 5.85067 5.83398 5.45831 5.83398 4.99998C5.83398 4.54165 5.99718 4.14929 6.32357 3.8229C6.64996 3.49651 7.04232 3.33331 7.50065 3.33331C7.95898 3.33331 8.35135 3.49651 8.67773 3.8229C9.00412 4.14929 9.16732 4.54165 9.16732 4.99998C9.16732 5.45831 9.00412 5.85067 8.67773 6.17706C8.35135 6.50345 7.95898 6.66665 7.50065 6.66665ZM12.5007 6.66665C12.0423 6.66665 11.65 6.50345 11.3236 6.17706C10.9972 5.85067 10.834 5.45831 10.834 4.99998C10.834 4.54165 10.9972 4.14929 11.3236 3.8229C11.65 3.49651 12.0423 3.33331 12.5007 3.33331C12.959 3.33331 13.3513 3.49651 13.6777 3.8229C14.0041 4.14929 14.1673 4.54165 14.1673 4.99998C14.1673 5.45831 14.0041 5.85067 13.6777 6.17706C13.3513 6.50345 12.959 6.66665 12.5007 6.66665Z" fill="currentColor"/>
</svg>
