<svg width="150" height="150" viewBox="0 0 150 150" fill="none" xmlns="http://www.w3.org/2000/svg">
<path d="M51.9554 51.9966C51.7124 58.3074 53.6124 64.5147 57.3464 69.6081C57.6552 70.0177 58.1066 70.2963 58.6112 70.3885C59.1158 70.4808 59.6366 70.38 60.0704 70.1061C63.4079 68.0211 71.1404 61.4781 75.0044 44.0916C77.0549 35.3461 77.391 26.2861 75.9944 17.4126C75.9284 17.0266 75.9741 16.6299 76.1264 16.2691C76.2786 15.9082 76.5308 15.5986 76.8533 15.3765C77.1758 15.1545 77.5551 15.0294 77.9465 15.0159C78.3378 15.0024 78.7248 15.1012 79.0619 15.3006C91.5533 22.731 101.921 33.2526 109.167 45.8518C116.412 58.4512 120.292 72.7041 120.432 87.2376C121.018 113.027 100.647 135.083 74.8559 135.001C62.8262 134.963 51.302 130.158 42.809 121.639C34.316 113.119 29.5469 101.58 29.5469 89.5506C29.5469 70.8501 38.0099 57.2271 48.8069 50.2146C49.1208 50.0172 49.4825 49.9084 49.8533 49.8999C50.2241 49.8912 50.5902 49.9831 50.913 50.1658C51.2358 50.3485 51.5031 50.6152 51.6867 50.9374C51.8702 51.2598 51.963 51.6258 51.9554 51.9966Z" fill="#5368A6" fill-opacity="0.3"/>
<path d="M89.2989 81.1378C88.9646 80.9981 88.5996 80.9488 88.2402 80.9947C87.8808 81.0404 87.5397 81.1798 87.2513 81.3988C86.9627 81.6178 86.7366 81.9088 86.5959 82.2425C86.4551 82.5764 86.4044 82.9412 86.4489 83.3008C86.6805 84.8594 86.7689 86.4361 86.7129 88.0108C86.3574 98.3098 79.9284 104.601 72.7209 104.352C70.5606 104.309 68.4578 103.649 66.6607 102.449C64.8636 101.25 63.4475 99.5609 62.5794 97.5823C62.3963 97.1788 62.0887 96.8446 61.7019 96.6287C61.3149 96.4129 60.8691 96.3265 60.4295 96.3826C59.99 96.4385 59.58 96.634 59.2596 96.9401C58.9394 97.2461 58.7254 97.6468 58.6494 98.0833C57.8523 102.322 58.2776 106.699 59.8754 110.705C61.4732 114.71 64.1777 118.179 67.673 120.705C71.1683 123.231 75.3101 124.711 79.6148 124.971C83.9195 125.231 88.2093 124.261 91.9835 122.174C95.7575 120.087 98.8601 116.97 100.929 113.186C102.997 109.402 103.946 105.107 103.666 100.804C103.385 96.5005 101.885 92.3657 99.3425 88.8827C96.7995 85.3996 93.3181 82.7119 89.3049 81.1333L89.2989 81.1378Z" fill="#5368A6" stroke="#5368A6" stroke-width="1.50648" stroke-linecap="round" stroke-linejoin="round"/>
</svg>
