<svg width="16" height="12" viewBox="0 0 16 12" fill="none" xmlns="http://www.w3.org/2000/svg">
<path d="M0.666504 11.3334V9.46669C0.666504 9.08891 0.763726 8.74169 0.958171 8.42502C1.15262 8.10835 1.41095 7.86669 1.73317 7.70002C2.42206 7.35558 3.12206 7.09724 3.83317 6.92502C4.54428 6.7528 5.2665 6.66669 5.99984 6.66669C6.73317 6.66669 7.45539 6.7528 8.1665 6.92502C8.87761 7.09724 9.57761 7.35558 10.2665 7.70002C10.5887 7.86669 10.8471 8.10835 11.0415 8.42502C11.2359 8.74169 11.3332 9.08891 11.3332 9.46669V11.3334H0.666504ZM12.6665 11.3334V9.33335C12.6665 8.84446 12.5304 8.37502 12.2582 7.92502C11.9859 7.47502 11.5998 7.08891 11.0998 6.76669C11.6665 6.83335 12.1998 6.94724 12.6998 7.10835C13.1998 7.26946 13.6665 7.46669 14.0998 7.70002C14.4998 7.92224 14.8054 8.16946 15.0165 8.44169C15.2276 8.71391 15.3332 9.01113 15.3332 9.33335V11.3334H12.6665ZM5.99984 6.00002C5.2665 6.00002 4.63873 5.73891 4.1165 5.21669C3.59428 4.69446 3.33317 4.06669 3.33317 3.33335C3.33317 2.60002 3.59428 1.97224 4.1165 1.45002C4.63873 0.927798 5.2665 0.666687 5.99984 0.666687C6.73317 0.666687 7.36095 0.927798 7.88317 1.45002C8.40539 1.97224 8.6665 2.60002 8.6665 3.33335C8.6665 4.06669 8.40539 4.69446 7.88317 5.21669C7.36095 5.73891 6.73317 6.00002 5.99984 6.00002ZM12.6665 3.33335C12.6665 4.06669 12.4054 4.69446 11.8832 5.21669C11.3609 5.73891 10.7332 6.00002 9.99984 6.00002C9.87761 6.00002 9.72206 5.98613 9.53317 5.95835C9.34428 5.93058 9.18873 5.90002 9.0665 5.86669C9.3665 5.51113 9.59706 5.11669 9.75817 4.68335C9.91928 4.25002 9.99984 3.80002 9.99984 3.33335C9.99984 2.86669 9.91928 2.41669 9.75817 1.98335C9.59706 1.55002 9.3665 1.15558 9.0665 0.80002C9.22206 0.744465 9.37761 0.708354 9.53317 0.691687C9.68873 0.67502 9.84428 0.666687 9.99984 0.666687C10.7332 0.666687 11.3609 0.927798 11.8832 1.45002C12.4054 1.97224 12.6665 2.60002 12.6665 3.33335ZM1.99984 10H9.99984V9.46669C9.99984 9.34446 9.96928 9.23335 9.90817 9.13335C9.84706 9.03335 9.7665 8.95558 9.6665 8.90002C9.0665 8.60002 8.46095 8.37502 7.84984 8.22502C7.23873 8.07502 6.62206 8.00002 5.99984 8.00002C5.37761 8.00002 4.76095 8.07502 4.14984 8.22502C3.53873 8.37502 2.93317 8.60002 2.33317 8.90002C2.23317 8.95558 2.15261 9.03335 2.0915 9.13335C2.03039 9.23335 1.99984 9.34446 1.99984 9.46669V10ZM5.99984 4.66669C6.3665 4.66669 6.68039 4.53613 6.9415 4.27502C7.20261 4.01391 7.33317 3.70002 7.33317 3.33335C7.33317 2.96669 7.20261 2.6528 6.9415 2.39169C6.68039 2.13058 6.3665 2.00002 5.99984 2.00002C5.63317 2.00002 5.31928 2.13058 5.05817 2.39169C4.79706 2.6528 4.6665 2.96669 4.6665 3.33335C4.6665 3.70002 4.79706 4.01391 5.05817 4.27502C5.31928 4.53613 5.63317 4.66669 5.99984 4.66669Z" fill="white"/>
</svg>
