<svg width="55" height="65" viewBox="0 0 55 65" fill="none" xmlns="http://www.w3.org/2000/svg">
<g clip-path="url(#clip0_170_1172)">
<path d="M25.6511 64.4767C25.8745 62.669 26.057 61.044 26.2804 59.4229C26.6107 57.0302 26.9759 54.6432 27.3178 52.2524C27.646 49.9549 27.9607 47.6554 28.2793 45.3579C28.6076 42.9982 28.9281 40.6365 29.2583 38.2749C29.709 35.0521 30.1694 31.8313 30.6201 28.6067C30.9445 26.278 31.2572 23.9475 31.5816 21.6189C31.9041 19.2903 32.2382 16.9616 32.5606 14.633C32.887 12.2714 33.2056 9.90776 33.5241 7.5461C33.8058 5.47018 34.0836 3.39619 34.3633 1.32026C34.441 0.739082 34.7576 0.519438 35.3521 0.523325C38.7398 0.542763 42.1334 0.426138 45.5134 0.581638C47.1238 0.655501 48.771 1.05591 50.294 1.60794C52.6814 2.47291 53.8061 4.46137 54.0547 6.90078C54.3539 9.84362 53.9304 12.7534 53.4739 15.6613C53.1087 17.9841 52.8504 20.3243 52.5201 22.6529C52.1569 25.2012 51.9335 27.7845 50.7466 30.1364C49.989 31.635 48.9575 32.9082 47.487 33.7401C46.8479 34.1016 46.6867 34.5584 46.7061 35.2349C46.8577 40.4927 47.0208 45.7506 47.1082 51.0084C47.1782 55.2069 47.1335 59.4074 47.1665 63.6078C47.1723 64.2901 46.9237 64.5039 46.2594 64.4922C44.3557 64.4592 42.452 64.4456 40.5483 64.4981C39.7033 64.5214 39.5149 64.1734 39.5285 63.4115C39.6179 58.278 39.6703 53.1426 39.7538 48.0092C39.781 46.2695 39.9131 44.5299 39.9073 42.7902C39.9015 40.6638 39.8043 38.5373 39.7441 36.4108C39.7422 36.3136 39.7402 36.1387 39.715 36.1348C38.9652 36.0104 38.2134 35.8394 37.4578 35.8238C37.1994 35.818 36.7371 36.1795 36.7021 36.4225C36.2514 39.4159 35.8785 42.419 35.457 45.4162C35.0218 48.5126 34.5498 51.6032 34.1088 54.6976C33.7825 56.9932 33.4814 59.2907 33.1628 61.5883C33.0521 62.3852 32.9511 63.188 32.7743 63.9713C32.7296 64.1715 32.4169 64.4553 32.2246 64.4592C30.1033 64.4942 27.9821 64.4806 25.6549 64.4806L25.6511 64.4767ZM46.8713 11.4278C46.8421 11.4219 46.813 11.4161 46.7838 11.4083C46.7722 11.1518 46.7489 10.8952 46.7508 10.6386C46.7664 8.85231 45.9505 7.9504 44.0837 7.7327C43.161 7.6258 42.2111 7.64912 41.2826 7.72882C41.0145 7.75214 40.6105 8.14672 40.5619 8.42468C40.2569 10.1371 40.0336 11.8651 39.7888 13.5892C39.2837 17.1599 38.7748 20.7286 38.2833 24.3012C38.0988 25.6424 37.9609 26.9895 37.788 28.3306C37.7103 28.939 37.8948 29.2384 38.565 29.2034C39.3381 29.1626 40.1151 29.2151 40.8883 29.1878C42.8094 29.1179 44.4062 27.7495 44.752 25.8543C44.9365 24.8416 45.0472 23.8173 45.1968 22.7987C45.7543 19.0084 46.3137 15.2181 46.8732 11.4278H46.8713Z" fill="black"/>
<path d="M13.1762 64.3076C13.4151 62.4571 13.6424 60.6105 13.8968 58.7659C14.2271 56.3732 14.5826 53.9843 14.9206 51.5915C15.3848 48.3046 15.851 45.0197 16.3056 41.7309C16.562 39.8804 16.8204 38.03 17.0146 36.1737C17.036 35.9677 16.6533 35.5284 16.4474 35.5206C14.8681 35.4642 13.2849 35.4623 11.7057 35.5167C11.4726 35.5245 11.1035 35.8841 11.0491 36.1329C10.7927 37.3283 10.5984 38.5412 10.4314 39.7541C10.107 42.1157 9.83502 44.4852 9.50673 46.8468C9.0716 49.9724 8.5918 53.0921 8.15084 56.2177C7.81479 58.6124 7.47484 61.009 7.21454 63.4115C7.13101 64.1812 6.88237 64.5058 6.0937 64.4903C4.35126 64.4572 2.60881 64.4825 0.866358 64.4767C0.617714 64.4767 0.36907 64.4203 -0.00195312 64.3756C0.244748 62.4688 0.472024 60.6222 0.72261 58.7795C1.19659 55.3002 1.67445 51.8209 2.16591 48.3455C2.61658 45.1577 3.09638 41.9719 3.54705 38.7841C3.87145 36.4866 4.16283 34.1833 4.47946 31.8858C4.80192 29.5572 5.14381 27.2305 5.47015 24.9019C5.78484 22.6685 6.08982 20.4351 6.40062 18.2018C6.73085 15.8401 7.06497 13.4784 7.39326 11.1148C7.71183 8.81731 8.02652 6.52174 8.33733 4.22228C8.48107 3.16877 8.58791 2.10942 8.76857 1.06368C8.80353 0.863478 9.10851 0.562196 9.29305 0.560252C11.4143 0.525265 13.5375 0.536927 15.8996 0.536927C14.6156 9.87083 13.351 19.0687 12.0631 28.4278C14.06 28.4278 15.9171 28.4512 17.7703 28.3909C17.9528 28.3851 18.2306 27.8836 18.2753 27.5842C18.6036 25.3839 18.8775 23.1758 19.1805 20.9716C19.5049 18.6119 19.8429 16.2522 20.1712 13.8925C20.4859 11.6241 20.8006 9.35768 21.1095 7.08737C21.3834 5.07753 21.6339 3.06381 21.935 1.05785C21.9642 0.861534 22.2769 0.560252 22.4634 0.556365C24.5846 0.521377 26.7059 0.53304 28.9476 0.53304C28.9145 1.27167 28.9398 1.90922 28.8504 2.53122C28.2599 6.67724 27.6228 10.8174 27.0419 14.9654C26.4611 19.1134 25.9483 23.2711 25.3694 27.421C24.7925 31.5689 24.1515 35.7072 23.5745 39.8532C23.1161 43.1401 22.7334 46.4386 22.2769 49.7255C21.8398 52.8861 21.3406 56.0369 20.89 59.1955C20.684 60.6319 20.5073 62.0742 20.3596 63.5184C20.3033 64.0704 20.1712 64.4728 19.5321 64.4728C17.5643 64.4728 15.5966 64.467 13.6268 64.4572C13.5083 64.4572 13.3898 64.3814 13.1684 64.3037L13.1762 64.3076Z" fill="black"/>
</g>
<defs>
<clipPath id="clip0_170_1172">
<rect width="54.1538" height="64" fill="white" transform="translate(0 0.5)"/>
</clipPath>
</defs>
</svg>
