<svg viewBox="0 0 40 40" fill="none" xmlns="http://www.w3.org/2000/svg">
<mask id="mask0_63812_35812" style="mask-type:alpha" maskUnits="userSpaceOnUse" x="8" y="8" width="24" height="24">
<rect x="8" y="8" width="24" height="24" fill="#D9D9D9"/>
</mask>
<g mask="url(#mask0_63812_35812)">
<path d="M24.1 21.2998L22.65 19.8498C22.8 19.0665 22.575 18.3331 21.975 17.6498C21.375 16.9665 20.6 16.6998 19.65 16.8498L18.2 15.3998C18.4833 15.2665 18.7708 15.1665 19.0625 15.0998C19.3542 15.0331 19.6667 14.9998 20 14.9998C21.25 14.9998 22.3125 15.4373 23.1875 16.3123C24.0625 17.1873 24.5 18.2498 24.5 19.4998C24.5 19.8331 24.4667 20.1456 24.4 20.4373C24.3333 20.729 24.2333 21.0165 24.1 21.2998ZM27.3 24.4498L25.85 23.0498C26.4833 22.5665 27.0458 22.0373 27.5375 21.4623C28.0292 20.8873 28.45 20.2331 28.8 19.4998C27.9667 17.8165 26.7708 16.479 25.2125 15.4873C23.6542 14.4956 21.9167 13.9998 20 13.9998C19.5167 13.9998 19.0417 14.0331 18.575 14.0998C18.1083 14.1665 17.65 14.2665 17.2 14.3998L15.65 12.8498C16.3333 12.5665 17.0333 12.354 17.75 12.2123C18.4667 12.0706 19.2167 11.9998 20 11.9998C22.5167 11.9998 24.7583 12.6956 26.725 14.0873C28.6917 15.479 30.1167 17.2831 31 19.4998C30.6167 20.4831 30.1125 21.3956 29.4875 22.2373C28.8625 23.079 28.1333 23.8165 27.3 24.4498ZM27.8 30.5998L23.6 26.4498C23.0167 26.6331 22.4292 26.7706 21.8375 26.8623C21.2458 26.954 20.6333 26.9998 20 26.9998C17.4833 26.9998 15.2417 26.304 13.275 24.9123C11.3083 23.5206 9.88333 21.7165 9 19.4998C9.35 18.6165 9.79167 17.7956 10.325 17.0373C10.8583 16.279 11.4667 15.5998 12.15 14.9998L9.4 12.1998L10.8 10.7998L29.2 29.1998L27.8 30.5998ZM13.55 16.3998C13.0667 16.8331 12.625 17.3081 12.225 17.8248C11.825 18.3415 11.4833 18.8998 11.2 19.4998C12.0333 21.1831 13.2292 22.5206 14.7875 23.5123C16.3458 24.504 18.0833 24.9998 20 24.9998C20.3333 24.9998 20.6583 24.979 20.975 24.9373C21.2917 24.8956 21.6167 24.8498 21.95 24.7998L21.05 23.8498C20.8667 23.8998 20.6917 23.9373 20.525 23.9623C20.3583 23.9873 20.1833 23.9998 20 23.9998C18.75 23.9998 17.6875 23.5623 16.8125 22.6873C15.9375 21.8123 15.5 20.7498 15.5 19.4998C15.5 19.3165 15.5125 19.1415 15.5375 18.9748C15.5625 18.8081 15.6 18.6331 15.65 18.4498L13.55 16.3998Z" fill="#111826"/>
</g>
</svg>
