<svg width="56" height="64" viewBox="0 0 56 64" fill="none" xmlns="http://www.w3.org/2000/svg">
<g clip-path="url(#clip0_61394_97193)">
<path d="M26.5703 63.9767C26.7937 62.169 26.9763 60.5441 27.1997 58.923C27.5299 56.5302 27.8951 54.1433 28.237 51.7525C28.5653 49.4549 28.88 47.1555 29.1986 44.858C29.5268 42.4982 29.8474 40.1366 30.1776 37.7749C30.6283 34.5522 31.0886 31.3314 31.5393 28.1067C31.8637 25.7781 32.1765 23.4475 32.5009 21.1189C32.8233 18.7903 33.1574 16.4617 33.4799 14.1331C33.8062 11.7714 34.1248 9.40781 34.4434 7.04615C34.7251 4.97022 35.0028 2.89624 35.2826 0.82031C35.3603 0.239128 35.6769 0.0194836 36.2713 0.0233711C39.6591 0.0428087 43.0527 -0.0738165 46.4327 0.0816837C48.043 0.155546 49.6903 0.555959 51.2132 1.10799C53.6006 1.97295 54.7253 3.96141 54.974 6.40082C55.2731 9.34366 54.8497 12.2535 54.3932 15.1613C54.028 17.4841 53.7696 19.8244 53.4394 22.153C53.0761 24.7013 52.8527 27.2845 51.6659 29.6364C50.9083 31.1351 49.8768 32.4082 48.4063 33.2402C47.7672 33.6017 47.606 34.0585 47.6254 34.7349C47.7769 39.9928 47.9401 45.2506 48.0275 50.5085C48.0974 54.707 48.0527 58.9074 48.0858 63.1079C48.0916 63.7901 47.843 64.0039 47.1786 63.9923C45.2749 63.9592 43.3713 63.9456 41.4676 63.9981C40.6226 64.0214 40.4341 63.6735 40.4477 62.9115C40.5371 57.7781 40.5895 52.6427 40.6731 47.5092C40.7003 45.7696 40.8324 44.0299 40.8265 42.2903C40.8207 40.1638 40.7236 38.0373 40.6634 35.9109C40.6614 35.8137 40.6595 35.6387 40.6342 35.6349C39.8844 35.5105 39.1327 35.3394 38.377 35.3239C38.1187 35.318 37.6563 35.6796 37.6214 35.9225C37.1707 38.9159 36.7977 41.919 36.3762 44.9163C35.9411 48.0127 35.469 51.1032 35.0281 54.1977C34.7017 56.4933 34.4006 58.7908 34.0821 61.0883C33.9714 61.8852 33.8703 62.688 33.6936 63.4713C33.6489 63.6715 33.3361 63.9553 33.1438 63.9592C31.0226 63.9942 28.9013 63.9806 26.5742 63.9806L26.5703 63.9767ZM47.7905 10.9278C47.7614 10.922 47.7322 10.9162 47.7031 10.9084C47.6914 10.6518 47.6681 10.3952 47.6701 10.1387C47.6856 8.35235 46.8697 7.45045 45.003 7.23275C44.0803 7.12584 43.1304 7.14917 42.2018 7.22886C41.9338 7.25219 41.5297 7.64677 41.4812 7.92473C41.1762 9.63717 40.9528 11.3652 40.708 13.0893C40.203 16.6599 39.694 20.2287 39.2026 23.8013C39.018 25.1425 38.8801 26.4895 38.7072 27.8307C38.6295 28.4391 38.8141 28.7384 39.4842 28.7034C40.2574 28.6626 41.0344 28.7151 41.8075 28.6879C43.7287 28.6179 45.3254 27.2495 45.6712 25.3544C45.8557 24.3417 45.9665 23.3173 46.116 22.2988C46.6736 18.5085 47.233 14.7181 47.7924 10.9278H47.7905Z" fill="#111826"/>
<path d="M14.1 63.8075C14.3389 61.9571 14.5662 60.1105 14.8207 58.2659C15.1509 55.8731 15.5064 53.4842 15.8444 51.0915C16.3087 47.8046 16.7749 44.5197 17.2294 41.2308C17.4858 39.3804 17.7442 37.5299 17.9384 35.6736C17.9598 35.4676 17.5771 35.0283 17.3712 35.0205C15.7919 34.9642 14.2088 34.9622 12.6295 35.0167C12.3964 35.0244 12.0273 35.384 11.9729 35.6328C11.7165 36.8282 11.5223 38.0411 11.3552 39.254C11.0308 41.6157 10.7588 43.9851 10.4306 46.3468C9.99543 49.4723 9.51562 52.5921 9.07467 55.7176C8.73861 58.1123 8.39867 60.509 8.13837 62.9114C8.05484 63.6812 7.8062 64.0058 7.01753 63.9902C5.27508 63.9572 3.53263 63.9825 1.79019 63.9766C1.54154 63.9766 1.2929 63.9203 0.921875 63.8755C1.16858 61.9687 1.39585 60.1222 1.64644 58.2795C2.12042 54.8002 2.59828 51.3209 3.08974 47.8454C3.5404 44.6577 4.02021 41.4719 4.47088 38.2841C4.79528 35.9866 5.08666 33.6832 5.40329 31.3857C5.72575 29.0571 6.06764 26.7304 6.39398 24.4018C6.70867 22.1684 7.01365 19.9351 7.32445 17.7017C7.65468 15.34 7.9888 12.9784 8.31708 10.6148C8.63566 8.31727 8.95035 6.0217 9.26115 3.72224C9.4049 2.66872 9.51174 1.60938 9.6924 0.563638C9.72736 0.363432 10.0323 0.0621502 10.2169 0.0602065C12.3381 0.0252189 14.4613 0.0368814 16.8234 0.0368814C15.5394 9.37078 14.2748 18.5686 12.9869 27.9278C14.9838 27.9278 16.8409 27.9511 18.6941 27.8909C18.8767 27.885 19.1545 27.3835 19.1991 27.0842C19.5274 24.8839 19.8013 22.6758 20.1044 20.4716C20.4288 18.1118 20.7668 15.7521 21.095 13.3924C21.4097 11.124 21.7244 8.85763 22.0333 6.58733C22.3072 4.57749 22.5578 2.56376 22.8589 0.557807C22.888 0.361488 23.2007 0.0602065 23.3872 0.056319C25.5085 0.0213314 27.6297 0.0329939 29.8714 0.0329939C29.8384 0.77162 29.8636 1.40917 29.7743 2.03117C29.1837 6.1772 28.5466 10.3174 27.9658 14.4654C27.385 18.6133 26.8721 22.771 26.2933 26.9209C25.7163 31.0689 25.0753 35.2071 24.4984 39.3532C24.0399 42.6401 23.6572 45.9386 23.2007 49.2255C22.7637 52.386 22.2644 55.5368 21.8138 58.6954C21.6079 60.1319 21.4311 61.5741 21.2835 63.0184C21.2271 63.5704 21.095 63.9727 20.456 63.9727C18.4882 63.9727 16.5204 63.9669 14.5507 63.9572C14.4322 63.9572 14.3137 63.8814 14.0922 63.8036L14.1 63.8075Z" fill="#111826"/>
</g>
<defs>
<clipPath id="clip0_61394_97193">
<rect width="54.1538" height="64" fill="white" transform="translate(0.921875)"/>
</clipPath>
</defs>
</svg>
