<svg width="60" height="60" viewBox="0 0 60 60" fill="none" xmlns="http://www.w3.org/2000/svg">
<path fill="white" d="M30 0c16.57,0 30,13.43 30,30 0,16.57 -13.43,30 -30,30 -16.57,0 -30,-13.43 -30,-30 0,-16.57 13.43,-30 30,-30z"/>
<path fill="#04E061" d="M21.16 50.41c7.29,0 13.21,-5.91 13.21,-13.2 0,-7.3 -5.92,-13.21 -13.21,-13.21 -7.3,0 -13.21,5.91 -13.21,13.21 0,7.29 5.91,13.2 13.21,13.2z"/>
<path fill="#FF4053" d="M44.07 48.75c4.41,0 7.98,-3.58 7.98,-7.98 0,-4.41 -3.57,-7.98 -7.98,-7.98 -4.41,0 -7.98,3.57 -7.98,7.98 0,4.4 3.57,7.98 7.98,7.98z"/>
<path fill="#965EEB" d="M23.68 22.28c2.73,0 4.94,-2.21 4.94,-4.94 0,-2.73 -2.21,-4.94 -4.94,-4.94 -2.72,0 -4.94,2.21 -4.94,4.94 0,2.73 2.22,4.94 4.94,4.94z"/>
<path fill="#00AAFF" d="M40.97 31.06c5.93,0 10.74,-4.81 10.74,-10.74 0,-5.93 -4.81,-10.73 -10.74,-10.73 -5.93,0 -10.74,4.8 -10.74,10.73 0,5.93 4.81,10.74 10.74,10.74z"/>
</svg>