<svg width="60" height="60" viewBox="0 0 60 60" fill="none" xmlns="http://www.w3.org/2000/svg">
<path fill="#DF1B12" d="M30 60c16.57,0 30,-13.43 30,-30 0,-16.57 -13.43,-30 -30,-30 -16.57,0 -30,13.43 -30,30 0,16.57 13.43,30 30,30l0 0z"/>
<path fill="white" d="M17.06 16.46l0 10.21c1.56,-1.86 3.42,-2.79 5.58,-2.79 1.11,0 2.11,0.21 3,0.64 0.9,0.41 1.57,0.95 2.02,1.6 0.46,0.66 0.76,1.38 0.93,2.18 0.16,0.79 0.25,2.02 0.25,3.69l0 10.91 -4.83 0 0 -9.82c0,-1.95 -0.09,-3.19 -0.27,-3.72 -0.18,-0.52 -0.51,-0.94 -0.97,-1.24 -0.47,-0.32 -1.05,-0.47 -1.75,-0.47 -0.79,0 -1.51,0.2 -2.14,0.6 -0.63,0.39 -1.09,0.99 -1.38,1.79 -0.29,0.8 -0.44,1.98 -0.44,3.55l0 9.31 -4.82 0 0 -26.44 4.82 0z"/>
<path fill="white" d="M36.07 16.46l0 10.21c1.56,-1.86 3.42,-2.79 5.57,-2.79 1.12,0 2.12,0.21 3.01,0.64 0.9,0.41 1.56,0.95 2.02,1.6 0.45,0.66 0.76,1.38 0.92,2.18 0.17,0.79 0.25,2.02 0.25,3.69l0 10.91 -4.82 0 0 -9.82c0,-1.95 -0.09,-3.19 -0.27,-3.72 -0.19,-0.52 -0.51,-0.94 -0.97,-1.24 -0.47,-0.32 -1.05,-0.47 -1.75,-0.47 -0.8,0 -1.51,0.2 -2.14,0.6 -0.63,0.39 -1.09,0.99 -1.38,1.79 -0.29,0.8 -0.44,1.98 -0.44,3.55l0 9.31 -4.82 0 0 -26.44 4.82 0z"/>
</svg>
