<svg width="22" height="22" viewBox="0 0 22 22" fill="none" xmlns="http://www.w3.org/2000/svg">
<path d="M21.9984 15.5L17.9984 11.5V13.175L15.9984 11.175V3.99999H8.82344L6.82344 1.99999H15.9984C16.5484 1.99999 17.0193 2.19582 17.4109 2.58749C17.8026 2.97915 17.9984 3.44999 17.9984 3.99999V8.49999L21.9984 4.49999V15.5ZM20.5484 21.35L0.648438 1.44999L2.04844 0.0499878L21.9484 19.95L20.5484 21.35ZM3.99844 1.99999L5.99844 3.99999H3.99844V16H15.9984V14L17.9984 16C17.9984 16.55 17.8026 17.0208 17.4109 17.4125C17.0193 17.8042 16.5484 18 15.9984 18H3.99844C3.44844 18 2.9776 17.8042 2.58594 17.4125C2.19427 17.0208 1.99844 16.55 1.99844 16V3.99999C1.99844 3.44999 2.19427 2.97915 2.58594 2.58749C2.9776 2.19582 3.44844 1.99999 3.99844 1.99999Z" fill="white"/>
</svg>
