<svg width="24" height="16" viewBox="0 0 24 16" fill="none" xmlns="http://www.w3.org/2000/svg">
<path d="M0 16V13.225C0 12.6583 0.141667 12.1333 0.425 11.65C0.708333 11.1667 1.1 10.8 1.6 10.55C1.83333 10.4333 2.05833 10.325 2.275 10.225C2.50833 10.125 2.75 10.0333 3 9.95V16H0ZM4 9C3.16667 9 2.45833 8.70833 1.875 8.125C1.29167 7.54167 1 6.83333 1 6C1 5.16667 1.29167 4.45833 1.875 3.875C2.45833 3.29167 3.16667 3 4 3C4.83333 3 5.54167 3.29167 6.125 3.875C6.70833 4.45833 7 5.16667 7 6C7 6.83333 6.70833 7.54167 6.125 8.125C5.54167 8.70833 4.83333 9 4 9ZM4 16V13.2C4 12.6333 4.14167 12.1167 4.425 11.65C4.725 11.1667 5.11667 10.8 5.6 10.55C6.63333 10.0333 7.68333 9.65 8.75 9.4C9.81667 9.13333 10.9 9 12 9C13.1 9 14.1833 9.13333 15.25 9.4C16.3167 9.65 17.3667 10.0333 18.4 10.55C18.8833 10.8 19.2667 11.1667 19.55 11.65C19.85 12.1167 20 12.6333 20 13.2V16H4ZM12 8C10.9 8 9.95833 7.60833 9.175 6.825C8.39167 6.04167 8 5.1 8 4C8 2.9 8.39167 1.95833 9.175 1.175C9.95833 0.391667 10.9 0 12 0C13.1 0 14.0417 0.391667 14.825 1.175C15.6083 1.95833 16 2.9 16 4C16 5.1 15.6083 6.04167 14.825 6.825C14.0417 7.60833 13.1 8 12 8ZM20 9C19.1667 9 18.4583 8.70833 17.875 8.125C17.2917 7.54167 17 6.83333 17 6C17 5.16667 17.2917 4.45833 17.875 3.875C18.4583 3.29167 19.1667 3 20 3C20.8333 3 21.5417 3.29167 22.125 3.875C22.7083 4.45833 23 5.16667 23 6C23 6.83333 22.7083 7.54167 22.125 8.125C21.5417 8.70833 20.8333 9 20 9ZM21 16V9.95C21.25 10.0333 21.4833 10.125 21.7 10.225C21.9333 10.325 22.1667 10.4333 22.4 10.55C22.9 10.8 23.2917 11.1667 23.575 11.65C23.8583 12.1333 24 12.6583 24 13.225V16H21Z" fill="#111826"/>
</svg>
