<svg width="124" height="124" viewBox="0 0 124 124" fill="none" xmlns="http://www.w3.org/2000/svg">
<path opacity="0.6" d="M53.1982 3.72852C58.8339 1.39415 65.1661 1.39415 70.8018 3.72852L96.9805 14.5723C102.616 16.9066 107.093 21.3839 109.428 27.0195L120.271 53.1982C122.606 58.8339 122.606 65.1661 120.271 70.8018L109.428 96.9805C107.093 102.616 102.616 107.093 96.9805 109.428L70.8018 120.271C65.1661 122.606 58.8339 122.606 53.1982 120.271L27.0195 109.428C21.3839 107.093 16.9066 102.616 14.5723 96.9805L3.72852 70.8018C1.39415 65.1661 1.39415 58.8339 3.72852 53.1982L14.5723 27.0195C16.9066 21.3839 21.3839 16.9066 27.0195 14.5723L53.1982 3.72852Z" stroke="#FF3700" stroke-width="2"/>
</svg>
