<svg width="24" height="24" viewBox="0 0 24 24" fill="none" xmlns="http://www.w3.org/2000/svg">
<path d="M23.9999 12.0019C23.9999 5.38458 18.6173 0.00195312 12 0.00195312C5.38263 0.00195312 0 5.38458 0 12.0019C0 13.9404 0.473057 15.8644 1.37017 17.5692L0.565365 23.1955L5.46504 22.0662C7.4107 23.3325 9.6665 24.0003 12 24.0003C18.6174 24.0017 23.9999 18.6193 23.9999 12.0019ZM5.4838 9.8053C4.87804 6.77359 6.57273 5.74377 7.64003 5.40039C8.07993 5.26048 8.5631 5.48548 8.74771 5.91672L9.82945 8.44217C10.04 8.93255 9.92175 9.51235 9.53378 9.88158L8.73617 10.646C9.57125 13.3965 12.5942 14.9844 13.1411 15.2499L13.9459 14.4523C14.2935 14.1047 14.817 13.9865 15.2829 14.1494L18.0305 15.1057C18.4286 15.2456 18.6882 15.6379 18.6435 16.0432C18.5108 17.2619 17.6497 17.9441 16.9531 18.3061C16.5204 18.5283 16.0344 18.6422 15.5397 18.6422C15.3478 18.6422 15.1589 18.6234 14.9671 18.5903C6.88278 17.1422 5.49414 9.87877 5.4838 9.8053Z" fill="#2AD146"/>
</svg>
